<?xml version="1.0" standalone="no"?>
<!DOCTYPE svg PUBLIC "-//W3C//DTD SVG 20010904//EN"
 "http://www.w3.org/TR/2001/REC-SVG-20010904/DTD/svg10.dtd">
<svg version="1.0" xmlns="http://www.w3.org/2000/svg"
 width="1024.000000pt" height="1024.000000pt" viewBox="0 0 1024.000000 1024.000000"
 preserveAspectRatio="xMidYMid meet">

<g transform="translate(0.000000,1024.000000) scale(0.100000,-0.100000)"
fill="#000000" stroke="none">
<path d="M0 5120 l0 -5120 5120 0 5120 0 0 5120 0 5120 -5120 0 -5120 0 0
-5120z m4506 2705 c79 -46 147 -148 197 -296 62 -181 100 -403 157 -939 34
-316 35 -321 61 -455 40 -196 90 -309 151 -338 39 -19 61 -12 99 31 62 71 104
202 135 422 9 63 18 126 20 140 2 14 15 135 29 270 22 218 37 341 51 420 50
299 71 386 125 516 56 134 142 230 227 254 271 75 430 -210 518 -930 2 -19 6
-51 9 -70 3 -19 19 -159 35 -310 17 -151 32 -286 34 -300 48 -325 65 -407 116
-539 39 -102 116 -190 166 -192 111 -4 159 12 222 74 74 72 124 195 167 417
61 312 110 425 207 476 35 18 141 18 176 0 103 -54 164 -196 252 -587 48 -216
110 -419 152 -504 66 -131 161 -222 256 -248 23 -6 42 -14 42 -17 0 -3 -19
-11 -42 -17 -95 -26 -190 -117 -256 -248 -42 -85 -104 -288 -152 -504 -88
-391 -149 -533 -252 -587 -35 -18 -141 -18 -176 0 -97 51 -146 164 -207 476
-43 222 -93 345 -167 417 -63 62 -111 78 -222 74 -50 -2 -127 -90 -166 -192
-51 -132 -68 -214 -116 -539 -2 -14 -17 -149 -34 -300 -16 -151 -32 -291 -35
-310 -3 -19 -7 -51 -9 -70 -79 -643 -214 -939 -431 -940 -104 0 -180 43 -247
139 -86 123 -130 269 -192 641 -14 79 -29 202 -51 420 -14 135 -27 256 -29
270 -2 14 -11 77 -20 140 -31 220 -73 351 -135 422 -38 43 -60 50 -99 31 -61
-29 -111 -142 -151 -338 -26 -134 -27 -139 -61 -455 -57 -536 -95 -758 -157
-939 -50 -148 -118 -250 -197 -296 -60 -35 -159 -44 -221 -21 -147 56 -252
284 -319 691 -18 108 -28 185 -51 380 -77 679 -87 746 -130 921 -40 160 -82
251 -143 305 -45 39 -59 43 -142 39 -48 -2 -134 -44 -165 -82 -62 -74 -112
-206 -149 -398 -50 -259 -86 -365 -146 -434 -47 -53 -78 -66 -158 -66 -61 0
-74 4 -110 30 -78 56 -139 202 -207 500 -88 385 -140 540 -221 662 -25 37 -62
81 -83 98 -43 33 -117 69 -143 70 -10 0 -18 5 -18 10 0 6 8 10 18 10 26 1 100
37 143 70 21 17 58 61 83 98 81 122 133 277 221 662 68 298 129 444 207 500
36 26 49 30 110 30 80 0 111 -13 158 -66 60 -69 96 -175 146 -434 71 -367 167
-488 380 -481 46 1 114 66 153 146 19 37 48 126 66 199 43 175 53 242 130 921
23 195 33 272 51 380 66 397 165 620 307 686 60 28 170 21 233 -16z"/>
</g>
</svg>
